# xmcd
#
# Track frame offsets:
#	150
#	19990
#	35230
#	52807
#	69977
#	87575
#	99110
#	112302
#	128807
#	152472
#	176545
#	190715
#	210335
#	223352
#	249520
#	271610
#	292025
#	325487
#
# Disc length: 4658
#
# Revision: 1
# Processed by: cddbd v1.5.1PL0 Copyright (c) Steve Scherf et al.
# Submitted via: EasyCDDAExtractor 7.1.2.1
# Normalized: r0:DSETVAR1
#
DISCID=06123012
DTITLE=Various Artist - Clubber's Guide to 2001
DYEAR=2001
DGENRE=Dance
TTITLE0=Rui Da Silva - Touch Me (Double 99 Mix)
TTITLE1=Alan Braxe and Fred Falke - Intro (Original Mix)
TTITLE2=M&S Presents - Salsoul Nugget (If U Wanna) (Original Mix)
TTITLE3=Santos - Camels (Original Mix)
TTITLE4=Lost 'n' Alive - Everything I Play (Prophets of Sound's Funky Mama Mix)
TTITLE5=Todd Terry - Raining (Tea's American Dub)
TTITLE6=Junior Jack - My Feeling (Hatiras Liquid Adrenalin Dub)
TTITLE7=Hatiras - Spaced Invader (Original Mix)
TTITLE8=Cleptomaniacs feat. Bryan Chambers - All I Do (Original Cleptomaniacs Mix)
TTITLE9=X-Press 2 - AC-DC (Gangbanger Mix)
TTITLE10=Tom Novy feat. Lima - Now or Never (Hatiras Remix)
TTITLE11=PQM feat. Cica - The Flying Song (X-Press 2 Song of The Machine Remix)
TTITLE12=Ministers De-La-Funk feat. Jocelyn Brown - Believe (Richard F Vox Mix)
TTITLE13=Halo Varga - Future! (Original Mix)
TTITLE14=Datar - B (Danny's Love Parade 2000 Dub)
TTITLE15=Joshua Ryan - Pistolwhip (Way Out West Remix)
TTITLE16=Schiller - Das Glockenspiel (Humate Mix)
TTITLE17=Various Artist - Liberation (Temptation - Fly Like an Angel) (Solar Stone Remix)
EXTD=
EXTT0=
EXTT1=
EXTT2=
EXTT3=
EXTT4=
EXTT5=
EXTT6=
EXTT7=
EXTT8=
EXTT9=
EXTT10=
EXTT11=
EXTT12=
EXTT13=
EXTT14=
EXTT15=
EXTT16=
EXTT17=
PLAYORDER=
